<?xml version="1.0" standalone="no"?>
<!DOCTYPE svg PUBLIC "-//W3C//DTD SVG 20010904//EN"
 "http://www.w3.org/TR/2001/REC-SVG-20010904/DTD/svg10.dtd">
<svg version="1.0" xmlns="http://www.w3.org/2000/svg"
 width="557.000000pt" height="557.000000pt" viewBox="0 0 557.000000 557.000000"
 preserveAspectRatio="xMidYMid meet">
<metadata>
Created by potrace 1.14, written by Peter Selinger 2001-2017
</metadata>
<g transform="translate(0.000000,557.000000) scale(0.100000,-0.100000)"
fill="#000000" stroke="none">
<path d="M2447 4758 c-14 -18 -251 -395 -527 -838 -277 -443 -593 -949 -703
-1125 -110 -176 -221 -354 -247 -395 -220 -345 -720 -1154 -720 -1164 0 -7 69
-127 153 -267 l153 -254 894 -3 c616 -1 897 1 906 8 10 9 74 118 182 310 10
19 42 74 71 122 28 48 51 93 50 100 0 7 -66 126 -147 263 l-147 250 -243 1
c-133 1 -245 3 -247 6 -3 3 165 280 372 617 208 337 389 631 403 655 64 109
126 206 132 206 3 0 32 -42 64 -92 31 -51 67 -109 80 -128 22 -35 600 -963
720 -1158 51 -82 60 -102 46 -102 -17 0 -170 122 -262 207 l-35 33 -174 -2
-175 -3 -148 -260 c-82 -143 -154 -270 -160 -282 -14 -28 -14 -29 99 -205 152
-238 300 -472 323 -511 l22 -37 911 2 911 3 153 260 c84 143 153 267 153 276
0 9 -82 146 -181 305 -100 159 -189 301 -198 316 -9 16 -288 462 -621 993
-333 531 -609 973 -615 983 -49 84 -581 929 -589 934 -6 4 -151 8 -323 8
l-312 0 -24 -32z m606 -68 c3 -3 257 -408 565 -900 307 -492 782 -1252 1056
-1688 273 -436 496 -795 496 -798 0 -2 -364 -4 -809 -4 l-809 0 -187 297
c-103 164 -187 302 -188 307 -3 13 152 15 177 3 10 -5 79 -60 153 -122 l133
-114 378 1 c329 0 379 2 395 15 9 9 17 22 17 29 0 8 -118 202 -261 431 -144
230 -269 430 -278 445 -9 16 -145 234 -302 485 -506 810 -972 1557 -990 1588
l-18 30 234 0 c128 0 236 -3 238 -5z m-73 -820 c265 -426 497 -797 514 -825
72 -113 92 -145 117 -186 15 -24 70 -114 124 -199 54 -85 105 -167 114 -182 9
-15 111 -179 226 -364 116 -185 208 -339 205 -342 -9 -9 -451 -5 -459 4 -4 5
-148 236 -321 514 -172 278 -327 528 -345 555 -18 28 -80 127 -137 220 -58 94
-157 253 -221 355 -64 102 -151 242 -194 313 -84 136 -108 157 -142 121 -10
-11 -199 -311 -421 -669 -222 -357 -476 -767 -565 -910 -89 -143 -319 -512
-510 -820 -191 -308 -355 -570 -363 -583 -14 -22 -18 -17 -125 160 -60 101
-111 188 -114 195 -4 9 320 541 452 743 13 19 373 595 800 1280 804 1287 876
1402 880 1398 1 -2 219 -352 485 -778z m-371 -330 c61 -99 111 -184 111 -189
0 -5 -214 -357 -477 -782 -262 -426 -511 -830 -553 -899 -42 -69 -116 -188
-163 -266 -48 -78 -87 -148 -87 -156 0 -8 8 -22 18 -30 15 -13 90 -15 540 -14
287 1 522 -2 522 -6 0 -3 -32 -62 -71 -130 -40 -67 -85 -148 -102 -178 -17
-30 -35 -62 -41 -70 -10 -14 -105 -16 -819 -15 -557 0 -806 3 -803 10 2 6 79
132 171 280 93 149 242 389 332 535 91 146 175 281 188 300 25 38 174 279 190
307 6 10 22 36 36 58 15 22 105 166 200 320 95 154 200 324 234 378 33 53 148
239 255 412 107 173 198 315 201 315 3 0 56 -81 118 -180z m664 -1978 c103
-164 187 -303 187 -309 0 -10 -45 -83 -207 -339 l-41 -66 -34 54 c-19 29 -103
162 -187 295 l-153 243 29 52 c67 121 99 177 137 243 23 39 47 82 55 98 8 15
17 27 21 27 3 0 90 -134 193 -298z m-963 101 c5 -4 17 -24 28 -43 10 -19 56
-98 101 -174 45 -76 80 -141 78 -143 -2 -2 -214 -2 -471 -1 l-466 3 110 180
110 180 43 5 c68 8 459 2 467 -7z m2854 -483 c-7 -14 -59 -104 -116 -200
l-103 -175 -818 0 c-540 0 -817 3 -817 10 0 5 32 60 71 120 39 61 83 130 98
154 14 24 38 60 52 80 l26 36 810 0 811 0 -14 -25z"/>
</g>
</svg>
